<svg width="52" height="25" viewBox="0 0 52 25" fill="none" xmlns="http://www.w3.org/2000/svg">
                <path d="M34.6651 24.3131C35.2719 21.3137 38.1054 18.9302 41.1508 18.9302C44.0832 18.9302 46.1968 21.1408 46.1388 23.9832C49.3101 24.0662 50.193 19.89 50.193 19.89C50.4599 18.7223 50.8588 16.4457 51.1928 14.2112C51.3022 13.5213 51.2181 12.8145 50.9498 12.1696C50.1208 10.2344 49.1189 8.37788 47.9564 6.62267C46.8566 4.982 45.012 4.0102 42.9064 3.9752C41.6507 3.95521 40.4179 3.94321 39.4871 3.94321L39.4791 3.93521C39.3591 1.92761 37.8954 0.389922 35.8408 0.205959C34.5041 0.0869823 29.2092 0 26.6677 0C25.6579 0 24.2092 0.0139969 22.7435 0.0379921V0.0319936H22.7315H5.10898C4.88469 0.0318621 4.66257 0.0759418 4.45533 0.161713C4.24809 0.247484 4.05979 0.373265 3.90119 0.531861C3.74259 0.690458 3.61681 0.878762 3.53104 1.086C3.44527 1.29325 3.40119 1.51536 3.40132 1.73965V1.74765C3.40132 2.19843 3.58039 2.63074 3.89914 2.94949C4.21789 3.26824 4.6502 3.44731 5.10098 3.44731H8.65327C9.08101 3.47885 9.48101 3.67093 9.77306 3.98504C10.0651 4.29916 10.2276 4.71207 10.228 5.14097V5.14997C10.2286 5.37447 10.185 5.59691 10.0996 5.80453C10.0142 6.01216 9.88869 6.20092 9.73027 6.35999C9.57185 6.51907 9.38361 6.64534 9.17633 6.73159C8.96905 6.81784 8.7468 6.86236 8.52229 6.86263H6.70066C6.24802 6.86263 5.81393 7.04243 5.49387 7.36249C5.17381 7.68256 4.994 8.11665 4.994 8.56928C4.99387 8.79349 5.03792 9.01552 5.12363 9.2227C5.20933 9.42988 5.33503 9.61814 5.49352 9.77672C5.65201 9.93531 5.84019 10.0611 6.04732 10.1469C6.25445 10.2328 6.47645 10.2769 6.70066 10.2769H8.52229C8.97519 10.2769 9.40954 10.4569 9.72979 10.7771C10.05 11.0974 10.23 11.5317 10.23 11.9846C10.23 12.4375 10.05 12.8719 9.72979 13.1921C9.40954 13.5123 8.97519 13.6923 8.52229 13.6923H1.70766C1.25493 13.6923 0.820734 13.872 0.500515 14.1921C0.180296 14.5121 0.000265062 14.9462 0 15.3989C0 15.8518 0.179913 16.2862 0.500162 16.6064C0.82041 16.9267 1.25476 17.1066 1.70766 17.1066H8.52229C8.97519 17.1066 9.40954 17.2865 9.72979 17.6067C10.05 17.927 10.23 18.3613 10.23 18.8142C10.2294 19.2668 10.0493 19.7006 9.72908 20.0204C9.40889 20.3403 8.97485 20.5199 8.52229 20.5199H6.41472C5.96208 20.5199 5.52799 20.6997 5.20793 21.0198C4.88787 21.3398 4.70806 21.7739 4.70806 22.2266C4.70806 22.6793 4.88783 23.1135 5.20787 23.4337C5.5279 23.7539 5.96199 23.9339 6.41472 23.9342L13.1394 23.9292L13.6983 22.5365C14.843 20.4249 17.1206 18.9292 19.5321 18.9292C22.5785 18.9292 24.7421 21.3147 24.5041 24.3161H34.6641M17.7275 7.65747H15.4359C15.4337 7.65764 15.4317 7.65852 15.4301 7.65996C15.4285 7.6614 15.4273 7.66334 15.4269 7.66546L15.216 9.16516C15.2156 9.16637 15.2156 9.16763 15.2159 9.16884C15.2161 9.17006 15.2167 9.1712 15.2175 9.17217C15.2182 9.17314 15.2192 9.17391 15.2203 9.17443C15.2215 9.17495 15.2227 9.1752 15.224 9.17516H16.9296C17.0133 9.17278 17.0965 9.18912 17.1731 9.22297C17.2497 9.25683 17.3178 9.30735 17.3724 9.37087C17.427 9.43438 17.4668 9.50927 17.4888 9.59009C17.5107 9.67091 17.5144 9.75561 17.4995 9.83803C17.4703 10.0192 17.3788 10.1845 17.2409 10.3055C17.1029 10.4265 16.9271 10.4956 16.7437 10.5009H15.036C15.0339 10.5008 15.0319 10.5015 15.0302 10.5028C15.0286 10.5041 15.0275 10.5059 15.027 10.5079L14.7211 12.6865C14.6918 12.8676 14.6004 13.0329 14.4624 13.1539C14.3244 13.2749 14.1486 13.344 13.9652 13.3493C13.8815 13.3517 13.7983 13.3354 13.7218 13.3016C13.6452 13.2677 13.5772 13.2171 13.5226 13.1536C13.4681 13.0901 13.4285 13.0152 13.4066 12.9343C13.3848 12.8535 13.3812 12.7688 13.3963 12.6865L14.1902 7.03559C14.2216 6.84427 14.3186 6.66984 14.4645 6.54217C14.6104 6.41449 14.7962 6.34151 14.99 6.33573H17.9124C17.9961 6.33332 18.0793 6.34964 18.1559 6.3835C18.2324 6.41737 18.3005 6.46791 18.355 6.53145C18.4095 6.59499 18.4492 6.6699 18.471 6.75073C18.4929 6.83155 18.4964 6.91624 18.4813 6.9986C18.4517 7.17885 18.3602 7.34318 18.2227 7.4634C18.0851 7.58362 17.9101 7.65223 17.7275 7.65747ZM23.8522 6.78564C24.0903 6.99685 24.2578 7.27603 24.3321 7.58548C24.4152 7.93604 24.4288 8.29949 24.3721 8.65527C24.3026 9.20887 24.0761 9.73101 23.7193 10.16C23.5014 10.4176 23.2246 10.6189 22.9124 10.7468C22.911 10.7483 22.9102 10.7503 22.9102 10.7523C22.9102 10.7544 22.911 10.7564 22.9124 10.7578L23.4803 12.3965C23.6333 12.8364 23.2404 13.3493 22.7514 13.3493H22.7195C22.6008 13.3528 22.4842 13.3185 22.3864 13.2512C22.2886 13.184 22.2148 13.0874 22.1756 12.9754L21.4887 10.9758C21.4877 10.9743 21.4864 10.9731 21.4848 10.9722C21.4833 10.9713 21.4815 10.9708 21.4797 10.9708H20.02C20.018 10.9709 20.016 10.9716 20.0144 10.9729C20.0128 10.9741 20.0116 10.9759 20.011 10.9778L19.771 12.6855C19.7418 12.8666 19.6504 13.0319 19.5124 13.1529C19.3744 13.2739 19.1986 13.343 19.0152 13.3483C18.9315 13.3507 18.8483 13.3344 18.7718 13.3006C18.6952 13.2667 18.6271 13.2161 18.5726 13.1526C18.5181 13.0891 18.4784 13.0142 18.4566 12.9333C18.4347 12.8525 18.4312 12.7678 18.4463 12.6855L19.2402 7.03459C19.2716 6.84327 19.3686 6.66884 19.5145 6.54116C19.6604 6.41349 19.8462 6.34051 20.04 6.33473H22.2995C22.2995 6.33473 23.2913 6.30374 23.8522 6.78564ZM30.071 6.95161C30.0438 7.12082 29.9584 7.27524 29.8296 7.38822C29.7007 7.50121 29.5364 7.56567 29.3651 7.57048H26.7366C26.7346 7.57059 26.7327 7.57132 26.7311 7.57258C26.7294 7.57383 26.7283 7.57554 26.7277 7.57748L26.5187 9.06119C26.5184 9.06239 26.5184 9.06365 26.5186 9.06486C26.5189 9.06608 26.5194 9.06722 26.5202 9.06819C26.521 9.06916 26.522 9.06993 26.5231 9.07045C26.5242 9.07097 26.5254 9.07122 26.5267 9.07119H28.5683C28.6465 9.06887 28.7242 9.08406 28.7957 9.11564C28.8673 9.14723 28.9309 9.1944 28.9819 9.25372C29.0329 9.31304 29.0699 9.38301 29.0904 9.4585C29.1109 9.534 29.1142 9.61311 29.1002 9.69006C29.073 9.85927 28.9876 10.0137 28.8588 10.1267C28.7299 10.2397 28.5656 10.3041 28.3943 10.3089H26.3517C26.3497 10.309 26.3477 10.3098 26.3461 10.311C26.3445 10.3123 26.3433 10.314 26.3427 10.3159L26.0918 12.1016C26.0918 12.1041 26.0927 12.1065 26.0943 12.1083C26.096 12.1102 26.0983 12.1113 26.1008 12.1116H28.7273C28.8054 12.1093 28.8832 12.1245 28.9547 12.156C29.0263 12.1876 29.0899 12.2348 29.1409 12.2941C29.1918 12.3534 29.2289 12.4234 29.2494 12.4989C29.2698 12.5744 29.2732 12.6535 29.2591 12.7305C29.232 12.8997 29.1466 13.0541 29.0177 13.1671C28.8889 13.2801 28.7246 13.3445 28.5533 13.3493H25.2939C25.206 13.3506 25.1189 13.3324 25.0387 13.2962C24.9585 13.2601 24.8873 13.2067 24.8301 13.1399C24.7728 13.0731 24.731 12.9946 24.7075 12.9098C24.684 12.8251 24.6794 12.7362 24.6941 12.6495L25.4829 7.03859C25.5144 6.84727 25.6113 6.67284 25.7573 6.54516C25.9032 6.41749 26.0889 6.34451 26.2827 6.33873H29.5411C29.6185 6.33689 29.6954 6.35221 29.7662 6.38358C29.837 6.41495 29.9 6.4616 29.9506 6.52018C30.0013 6.57876 30.0383 6.64782 30.0591 6.72241C30.0799 6.797 30.084 6.87527 30.071 6.95161ZM35.5309 6.95161C35.5037 7.12082 35.4183 7.27524 35.2895 7.38822C35.1606 7.50121 34.9963 7.56567 34.825 7.57048H32.1966C32.1945 7.57059 32.1926 7.57132 32.191 7.57258C32.1894 7.57383 32.1882 7.57554 32.1876 7.57748L31.9796 9.06119C31.9793 9.06239 31.9793 9.06365 31.9795 9.06486C31.9798 9.06608 31.9803 9.06722 31.9811 9.06819C31.9819 9.06916 31.9829 9.06993 31.984 9.07045C31.9851 9.07097 31.9864 9.07122 31.9876 9.07119H34.0292C34.1074 9.06887 34.1851 9.08406 34.2566 9.11564C34.3282 9.14723 34.3918 9.1944 34.4428 9.25372C34.4938 9.31304 34.5309 9.38301 34.5513 9.4585C34.5718 9.534 34.5751 9.61311 34.5611 9.69006C34.5339 9.85927 34.4485 10.0137 34.3197 10.1267C34.1908 10.2397 34.0265 10.3041 33.8552 10.3089H31.8116C31.8096 10.309 31.8076 10.3098 31.806 10.311C31.8044 10.3123 31.8032 10.314 31.8026 10.3159L31.5517 12.1016C31.5517 12.1041 31.5526 12.1065 31.5543 12.1083C31.5559 12.1102 31.5582 12.1113 31.5607 12.1116H34.1872C34.2653 12.1093 34.3431 12.1245 34.4146 12.156C34.4862 12.1876 34.5498 12.2348 34.6008 12.2941C34.6517 12.3534 34.6888 12.4234 34.7093 12.4989C34.7298 12.5744 34.7331 12.6535 34.7191 12.7305C34.6919 12.8997 34.6065 13.0541 34.4776 13.1671C34.3488 13.2801 34.1845 13.3445 34.0132 13.3493H30.7538C30.6659 13.3506 30.5788 13.3324 30.4986 13.2962C30.4184 13.2601 30.3472 13.2067 30.29 13.1399C30.2327 13.0731 30.1909 12.9946 30.1674 12.9098C30.1439 12.8251 30.1393 12.7362 30.154 12.6495L30.9428 7.03859C30.9743 6.84727 31.0713 6.67284 31.2172 6.54516C31.3631 6.41749 31.5488 6.34451 31.7426 6.33873H35.001C35.0784 6.33689 35.1553 6.35221 35.2261 6.38358C35.2969 6.41495 35.3599 6.4616 35.4105 6.52018C35.4612 6.57876 35.4982 6.64782 35.519 6.72241C35.5398 6.797 35.5439 6.87527 35.5309 6.95161ZM39.3301 6.31074C40.223 6.31074 41.3787 6.32273 42.5385 6.34173C43.9442 6.36473 45.174 7.0106 45.9118 8.11238C46.6999 9.30053 47.4083 10.5397 48.0324 11.8216C48.3623 12.4935 47.7554 13.3683 46.9606 13.3683H38.4373L39.3301 6.31074Z" fill="#3F66BC"/>
                </svg>