                    <svg width="24" height="23" viewBox="0 0 24 23" fill="none" xmlns="http://www.w3.org/2000/svg">
                        <path
                            d="M17.5048 0.917969C16.3788 0.935484 15.2773 1.24982 14.3116 1.82924C13.3459 2.40866 12.5502 3.23264 12.0048 4.21797C11.4595 3.23264 10.6638 2.40866 9.69808 1.82924C8.73238 1.24982 7.63089 0.935484 6.50484 0.917969C4.70978 0.995959 3.01855 1.78122 1.80062 3.1022C0.582701 4.42318 -0.0629094 6.17249 0.0048411 7.96797C0.0048411 12.515 4.79084 17.481 8.80484 20.848C9.70106 21.6011 10.8342 22.014 12.0048 22.014C13.1755 22.014 14.3086 21.6011 15.2048 20.848C19.2188 17.481 24.0048 12.515 24.0048 7.96797C24.0726 6.17249 23.427 4.42318 22.2091 3.1022C20.9911 1.78122 19.2999 0.995959 17.5048 0.917969Z"
                            fill="white" />
                    </svg>
