
            <svg width="41" height="48" viewBox="0 0 41 48" fill="none" xmlns="http://www.w3.org/2000/svg">
                <path
                    d="M9.825 25.1813L12.3187 26.5875V29.9906L9.825 28.5844V25.1813ZM17.1469 29.3063L13.3594 27.1781V30.8812C13.3687 31.2656 12.9188 31.5375 12.5813 31.3313L9.04687 29.3438C8.87812 29.25 8.78438 29.0813 8.78438 28.8938V24.6L5.00625 22.4719V36.3469L17.1469 43.3594V29.3063ZM30.1125 36.3469V22.4813L18.1875 29.2969V43.2281L30.1125 36.3469ZM25.2844 19.8L13.9313 26.2969L17.6625 28.3969L29.625 21.5625L25.9406 19.4344L25.2844 19.8ZM22.3781 17.3812L10.3313 24.2812L12.8719 25.7063L24.8812 18.8344C24.6562 18.7031 22.6594 17.55 22.3781 17.3812ZM5.5125 21.5625C6.45 22.0875 8.34375 23.1562 9.28125 23.6813L21.3375 16.7812L17.5594 14.6063L5.5125 21.5625ZM36.7594 13.7625C32.9344 7.81875 26.0438 3.87188 19.0031 3.51562C18.7313 3.49688 18.525 3.27187 18.525 3V0L9.84375 5.61563L18.525 11.2313V8.57812C18.525 8.2875 18.7687 8.04375 19.0594 8.0625C26.9437 8.08125 34.35 13.7063 36.6281 21.2438C39.2156 28.8656 36.1688 37.7156 29.8875 42.5719C20.4 50.0063 5.98125 46.9688 0 36.5813C7.0875 49.9875 25.5 51.675 35.1844 40.1344C41.4469 32.7469 42.0281 21.8719 36.7594 13.7625Z"
                    fill="#3F66BC" />
            </svg>