
<svg width="20" height="20" viewBox="0 0 20 20" fill="none" xmlns="http://www.w3.org/2000/svg">
    <g clipPath="url(#clip0_612_3993)">
        <path
            d="M19.7513 18.5768L14.7771 13.6027C16.1326 11.9448 16.7991 9.82941 16.6386 7.69397C16.4782 5.55852 15.5031 3.56644 13.9151 2.12976C12.3271 0.693089 10.2476 -0.0782598 8.10679 -0.0247333C5.966 0.0287933 3.92768 0.9031 2.41343 2.41734C0.899193 3.93158 0.024887 5.96991 -0.0286395 8.1107C-0.082166 10.2515 0.689183 12.331 2.12586 13.919C3.56253 15.507 5.55462 16.4821 7.69006 16.6425C9.8255 16.803 11.9409 16.1365 13.5988 14.781L18.5729 19.7552C18.7301 19.907 18.9406 19.991 19.1591 19.9891C19.3776 19.9872 19.5866 19.8995 19.7411 19.745C19.8956 19.5905 19.9833 19.3815 19.9852 19.163C19.9871 18.9445 19.9031 18.734 19.7513 18.5768ZM8.32876 14.9993C7.01022 14.9993 5.72128 14.6083 4.62496 13.8758C3.52863 13.1433 2.67414 12.1021 2.16956 10.8839C1.66498 9.66571 1.53295 8.32527 1.79019 7.03206C2.04742 5.73885 2.68236 4.55097 3.61471 3.61862C4.54706 2.68627 5.73495 2.05133 7.02816 1.79409C8.32136 1.53686 9.66181 1.66888 10.88 2.17347C12.0982 2.67805 13.1393 3.53253 13.8719 4.62886C14.6044 5.72519 14.9954 7.01412 14.9954 8.33266C14.9934 10.1002 14.2904 11.7947 13.0406 13.0445C11.7908 14.2943 10.0963 14.9973 8.32876 14.9993Z"
            fill="white" />
    </g>
    <defs>
        <clipPath id="clip0_612_3993">
            <rect width="20" height="20" fill="white" />
        </clipPath>
    </defs>
</svg>