   <svg width="50" height="42" viewBox="0 0 50 42" fill="none" xmlns="http://www.w3.org/2000/svg">
                <path fillRule="evenodd" clipRule="evenodd"
                    d="M25.6395 0.54792C21.6597 0.415387 17.6389 1.50116 14.1675 3.81832C10.2687 6.42357 7.54398 10.2708 6.28896 14.5716C5.94238 14.5293 5.52736 14.5479 5.03456 14.6873C3.19465 15.2093 1.81083 16.717 1.18861 18.0448C0.381584 19.7752 0.0412281 22.0637 0.40025 24.4263C0.756784 26.7814 1.75172 28.7228 2.99616 29.928C4.24434 31.1339 5.65367 31.5259 7.05367 31.2316C9.13812 30.7867 10.1716 30.4538 9.87981 28.5118L8.46674 19.0982C8.75172 14.0035 11.3893 9.20739 15.8009 6.25806C21.7058 2.31379 29.4475 2.56641 35.0798 6.89023C38.9979 9.89432 41.2728 14.3955 41.5354 19.1206L40.5473 25.7056C38.3434 31.7368 32.8796 35.9144 26.5572 36.5074H22.3473C21.2609 36.5074 20.386 37.3822 20.386 38.4674V39.5015C20.386 40.5873 21.2609 41.4621 22.3473 41.4621H27.6555C28.7412 41.4621 29.6123 40.5873 29.6123 39.5015V38.9608C34.3798 37.7973 38.5412 34.8672 41.251 30.7811L42.9515 31.2322C44.3354 31.5912 45.7615 31.1339 47.0091 29.9286C48.2535 28.7228 49.2478 26.7821 49.605 24.4269C49.9652 22.0644 49.6149 19.7796 48.8172 18.0454C48.0164 16.3113 46.8236 15.21 45.4467 14.8149C44.8699 14.6487 44.2439 14.5877 43.7069 14.5716C42.572 10.6827 40.2355 7.14597 36.8681 4.56374C33.5572 2.02321 29.6192 0.678587 25.6395 0.54792Z"
                    fill="#3F66BC" />
                <path fillRule="evenodd" clipRule="evenodd"
                    d="M31.8543 17.4822C33.2574 17.4822 34.3948 18.6196 34.3979 20.0264C34.3948 21.4295 33.2574 22.5701 31.8543 22.5701C30.4474 22.5701 29.3069 21.4295 29.3069 20.0264C29.3069 18.6202 30.4481 17.4822 31.8543 17.4822ZM25.0036 17.4822C26.4098 17.4822 27.5473 18.6196 27.5473 20.0264C27.5473 21.4295 26.4098 22.5701 25.0036 22.5701C23.5961 22.5701 22.4587 21.4295 22.4587 20.0264C22.4587 18.6202 23.5961 17.4822 25.0036 17.4822ZM18.1554 17.4822C19.5585 17.4822 20.6991 18.6196 20.6991 20.0264C20.6991 21.4295 19.5585 22.5701 18.1554 22.5701C16.7492 22.5701 15.6112 21.4295 15.6112 20.0264C15.6112 18.6202 16.7492 17.4822 18.1554 17.4822ZM25.0036 6.55469C17.5432 6.55469 11.5312 12.3687 11.5312 20.0264C11.5312 23.7044 12.9219 26.9549 15.1874 29.3398L14.3835 32.9438C14.1184 34.1297 14.941 34.9274 16.0069 34.3338L19.5262 32.3707C21.1987 33.0968 23.0486 33.4982 25.0036 33.4982C32.4665 33.4982 38.4747 27.6878 38.4747 20.0264C38.4747 12.3687 32.4665 6.55469 25.0036 6.55469Z"
                    fill="#3F66BC" />
            </svg>
